<?xml version="1.0" standalone="no"?>
<!DOCTYPE svg PUBLIC "-//W3C//DTD SVG 20010904//EN"
 "http://www.w3.org/TR/2001/REC-SVG-20010904/DTD/svg10.dtd">
<svg version="1.0" xmlns="http://www.w3.org/2000/svg"
 width="286.000000pt" height="93.000000pt" viewBox="0 0 286.000000 93.000000"
 preserveAspectRatio="xMidYMid meet">

<g transform="translate(0.000000,93.000000) scale(0.100000,-0.100000)"
fill="#1A73E8" stroke="none">
<path xmlns="http://www.w3.org/2000/svg" d="M292 868 c-17 -17 -17 -649 0 -666 17 -17 2199 -17 2216 0 17 17 17 649 0 666 -17 17 -2199 17 -2216 0z m2168 -328 l0 -280 -435 0 -435 0 0 280 0 280 435 0 435 0 0 -280z m-1916 63 l66 -107 0 107 0 107 30 0 30 0 0 -160 0 -160 -32 0 c-31 1 -37 7 -100 113 l-68 112 0 -113 0 -112 -30 0 -30 0 0 160 0 160 34 0 c33 0 37 -5 100 -107z m345 11 c25 -18 51 -71 51 -104 0 -19 -6 -20 -90 -20 -94 0 -104 -6 -70 -40 24 -24 59 -26 86 -5 22 17 34 18 52 7 35 -22 -30 -72 -93 -72 -123 0 -168 151 -69 229 33 26 100 28 133 5z m575 -5 c14 -11 26 -25 26 -30 0 -15 -49 -22 -65 -9 -18 15 -60 9 -60 -10 0 -8 23 -23 55 -35 64 -25 88 -57 69 -98 -24 -53 -117 -64 -168 -21 -37 31 -38 38 -7 52 20 9 27 7 42 -9 22 -24 67 -22 72 3 2 12 -8 20 -40 28 -83 23 -111 77 -63 125 32 33 100 35 139 4z m-448 -58 c9 -39 21 -68 24 -66 4 2 15 34 25 70 17 63 18 65 50 65 32 0 34 -2 56 -72 l22 -73 18 60 c10 33 19 66 19 73 0 7 14 12 34 12 l34 0 -24 -77 c-13 -43 -29 -95 -36 -115 -10 -34 -15 -38 -44 -38 -32 0 -34 2 -56 71 l-22 71 -24 -71 c-23 -68 -25 -71 -56 -71 l-32 0 -36 115 -35 115 32 0 c32 0 33 -1 51 -69z"/>
<path d="M1763 550 l-61 -161 25 3 c20 2 29 12 38 38 l12 35 71 3 71 3 12 -41
c10 -32 17 -40 36 -40 12 0 23 3 23 8 -1 4 -27 75 -58 157 -52 135 -60 150
-83 153 -24 3 -28 -5 -86 -158z m113 37 c9 -28 19 -58 22 -64 3 -9 -10 -13
-47 -13 -28 0 -51 4 -51 8 0 23 43 131 50 127 5 -3 16 -29 26 -58z"/>
<path d="M2040 550 c0 -153 1 -160 20 -160 18 0 20 7 20 60 l0 60 35 0 c46 0
101 23 114 48 6 12 11 35 11 52 0 68 -47 100 -145 100 l-55 0 0 -160z m145
100 c20 -16 19 -64 -1 -80 -8 -8 -34 -14 -57 -14 l-42 -1 -3 44 c-5 66 1 75
49 68 22 -3 46 -11 54 -17z"/>
<path d="M2290 550 c0 -153 1 -160 20 -160 19 0 20 7 20 160 0 153 -1 160 -20
160 -19 0 -20 -7 -20 -160z"/>
<path d="M786 565 c-27 -27 -18 -35 40 -35 56 0 56 0 42 23 -19 27 -60 34 -82
12z"/>
</g>
</svg>
